<svg enable-background="new 0 0 32 32" viewBox="0 0 32 32" xmlns="http://www.w3.org/2000/svg"><path d="m28 14.86c1.025 0 1.86-.834 1.86-1.86s-.835-1.86-1.86-1.86-1.86.834-1.86 1.86.835 1.86 1.86 1.86zm0-3c.629 0 1.14.512 1.14 1.14s-.511 1.14-1.14 1.14-1.14-.512-1.14-1.14.511-1.14 1.14-1.14zm3.36 7.14v4c0 .833 0 2.189-1 2.732v5.268h-.72v-5.5c0-.151.096-.287.238-.339.703-.253.762-1.206.762-2.161v-4c0-1.505-1.135-2.64-2.64-2.64s-2.64 1.135-2.64 2.64v4c0 .955.059 1.908.762 2.161.143.052.238.188.238.339v5.5h-.72v-5.268c-1-.543-1-1.899-1-2.732v-4c0-1.884 1.477-3.36 3.36-3.36s3.36 1.476 3.36 3.36zm-27.36-4.14c1.025 0 1.86-.834 1.86-1.86s-.835-1.86-1.86-1.86-1.86.835-1.86 1.86.835 1.86 1.86 1.86zm0-3c.628 0 1.14.512 1.14 1.14s-.512 1.14-1.14 1.14-1.14-.512-1.14-1.14.512-1.14 1.14-1.14zm3.36 7.14v4c0 .778 0 2.182-1 2.731v5.269h-.72v-5.5c0-.151.095-.287.238-.339.703-.253.762-1.207.762-2.161v-4c0-1.505-1.135-2.64-2.64-2.64s-2.64 1.135-2.64 2.64v4c0 .954.059 1.908.762 2.161.143.052.238.188.238.339v5.5h-.72v-5.269c-1-.55-1-1.953-1-2.731v-4c0-1.884 1.476-3.36 3.36-3.36s3.36 1.476 3.36 3.36zm8.64-12.64c1.577 0 2.86-1.283 2.86-2.86s-1.284-2.86-2.86-2.86c-1.577 0-2.86 1.283-2.86 2.86s1.282 2.86 2.86 2.86zm0-5c1.18 0 2.139.96 2.139 2.14s-.959 2.14-2.139 2.14-2.14-.96-2.14-2.14.959-2.14 2.14-2.14zm5 26.28h-2.64v-7.396c1.24-.555 2-1.774 2-3.243v-5c0-2.526-1.834-4.36-4.361-4.36-2.526 0-4.359 1.833-4.359 4.36v5c0 1.469.76 2.688 2 3.243v7.396h-2.64c-.199 0-.36.161-.36.36v3h.72v-2.64h9.28v2.64h.721v-3c-.001-.199-.162-.36-.361-.36zm-6.877-7.979c-1.088-.392-1.763-1.412-1.763-2.661v-5c0-2.109 1.531-3.64 3.64-3.64 2.11 0 3.64 1.531 3.64 3.64v5c0 1.249-.675 2.269-1.762 2.661-.143.052-.238.188-.238.339v7.64h-3.28v-7.64c0-.151-.095-.287-.237-.339z"/><path d="m0 0h32v32h-32z" fill="none"/></svg>