<?xml version="1.0" encoding="utf-8"?>
<svg viewBox="0 0 375 374.999991" width="375px" height="375px" xmlns="http://www.w3.org/2000/svg">
  <defs>
    <clipPath id="2a329caa2e">
      <path d="M 134.730469 94 L 240.480469 94 L 240.480469 218.460938 L 134.730469 218.460938 Z M 134.730469 94 " clip-rule="nonzero"/>
    </clipPath>
    <clipPath id="ffc3a33170">
      <path d="M 198.601562 113.226562 C 198.488281 111.507812 198.847656 109.824219 199.601562 108.332031 C 200.359375 106.84375 201.503906 105.550781 202.957031 104.613281 C 204.410156 103.679688 206.0625 103.175781 207.742188 103.117188 C 209.410156 103.050781 211.09375 103.425781 212.613281 104.242188 C 214.136719 105.054688 215.371094 106.261719 216.246094 107.691406 C 217.113281 109.121094 217.601562 110.773438 217.632812 112.503906 C 217.644531 113.757812 216.636719 114.792969 215.378906 114.808594 C 214.121094 114.820312 213.085938 113.8125 213.070312 112.554688 C 213.058594 111.65625 212.800781 110.796875 212.351562 110.054688 C 211.902344 109.320312 211.261719 108.699219 210.457031 108.265625 C 209.664062 107.839844 208.78125 107.644531 207.914062 107.675781 C 207.050781 107.707031 206.199219 107.96875 205.433594 108.460938 C 204.679688 108.949219 204.082031 109.621094 203.691406 110.390625 C 203.300781 111.164062 203.113281 112.046875 203.167969 112.953125 C 203.25 114.207031 202.289062 115.292969 201.03125 115.367188 C 199.777344 115.449219 198.691406 114.492188 198.609375 113.234375 Z M 174.65625 209.789062 L 203.332031 209.789062 L 203.332031 213.757812 L 192.363281 213.757812 C 192.363281 216.324219 190.28125 218.394531 187.722656 218.394531 C 185.160156 218.394531 183.078125 216.316406 183.078125 213.757812 L 174.65625 213.757812 Z M 168.210938 202.648438 L 209.769531 202.648438 L 209.769531 206.617188 L 168.210938 206.617188 Z M 227.273438 133.164062 C 229.003906 133.914062 230.34375 135.222656 231.152344 136.816406 C 231.953125 138.402344 232.214844 140.257812 231.789062 142.09375 C 231.363281 143.925781 230.304688 145.476562 228.875 146.554688 C 227.453125 147.621094 225.671875 148.207031 223.792969 148.109375 C 222.535156 148.042969 221.5625 146.972656 221.628906 145.714844 C 221.695312 144.457031 222.765625 143.484375 224.023438 143.550781 C 224.8125 143.589844 225.550781 143.351562 226.136719 142.910156 C 226.71875 142.464844 227.15625 141.824219 227.328125 141.058594 C 227.507812 140.296875 227.402344 139.527344 227.066406 138.875 C 226.734375 138.222656 226.179688 137.675781 225.453125 137.371094 C 224.292969 136.867188 223.753906 135.53125 224.257812 134.371094 C 224.757812 133.210938 226.097656 132.671875 227.257812 133.171875 Z M 168.210938 198.625 L 209.769531 198.625 L 209.769531 183.46875 C 209.996094 183.410156 210.21875 183.34375 210.4375 183.265625 C 214.148438 182.078125 217.460938 179.652344 219.71875 176.210938 C 220.992188 174.265625 221.839844 172.140625 222.257812 169.96875 C 223.671875 169.804688 225.042969 169.398438 226.308594 168.777344 C 228.203125 167.851562 229.855469 166.4375 231.085938 164.632812 C 232.3125 162.828125 233.023438 160.773438 233.195312 158.675781 C 233.308594 157.285156 233.179688 155.878906 232.820312 154.507812 C 233.832031 153.886719 234.761719 153.152344 235.605469 152.332031 C 238.113281 149.875 239.828125 146.613281 240.332031 142.953125 C 240.832031 139.292969 240.0625 135.695312 238.300781 132.664062 C 237.816406 131.816406 237.246094 131.023438 236.617188 130.277344 C 237.3125 128.585938 237.695312 126.796875 237.753906 124.984375 C 237.832031 122.628906 237.359375 120.253906 236.324219 118.0625 C 235.292969 115.871094 233.765625 113.992188 231.894531 112.546875 C 230.464844 111.441406 228.832031 110.585938 227.070312 110.054688 C 226.617188 107.480469 225.628906 104.980469 224.121094 102.722656 C 221.890625 99.367188 218.746094 96.875 215.175781 95.441406 C 211.613281 94.003906 207.621094 93.628906 203.699219 94.496094 C 199.769531 95.363281 196.308594 97.398438 193.679688 100.207031 C 191.871094 102.144531 190.445312 104.457031 189.542969 107.015625 C 188.285156 110.585938 188.628906 112.644531 188.628906 116.4375 L 188.628906 194.65625 L 183.328125 194.65625 L 183.328125 96.308594 C 161.960938 95.371094 142.253906 109.464844 144.734375 132.445312 C 145.203125 135.65625 144.425781 138.554688 142.414062 141.132812 L 135.328125 150.160156 C 134.6875 151.125 134.558594 152.34375 134.984375 153.414062 C 135.410156 154.492188 136.339844 155.285156 137.472656 155.554688 C 140.449219 156.085938 141.371094 157.515625 140.226562 159.84375 C 138.511719 161.601562 138.054688 162.882812 138.855469 163.683594 C 139.371094 164.25 139.378906 165.113281 138.878906 165.6875 C 138.375 166.371094 138.601562 167.140625 139.550781 167.992188 C 141.175781 170.082031 141.519531 172.429688 140.59375 175.050781 C 140.015625 176.488281 140.089844 178.105469 140.800781 179.480469 C 141.515625 180.859375 142.792969 181.851562 144.296875 182.203125 C 146.769531 182.714844 149.300781 182.984375 151.867188 183.011719 C 159.300781 183.089844 164.753906 188.289062 168.21875 198.617188 Z M 205.1875 194.65625 L 193.195312 194.65625 L 193.195312 162.296875 C 194.984375 163.046875 197.019531 163.179688 198.980469 162.539062 C 201.011719 161.871094 202.621094 160.496094 203.617188 158.757812 C 204.605469 157.03125 204.972656 154.941406 204.515625 152.867188 C 204.246094 151.632812 203.023438 150.855469 201.789062 151.125 C 200.554688 151.394531 199.777344 152.613281 200.046875 153.847656 C 200.246094 154.785156 200.089844 155.726562 199.640625 156.5 C 199.199219 157.269531 198.480469 157.882812 197.566406 158.183594 C 196.652344 158.480469 195.703125 158.414062 194.886719 158.046875 C 194.191406 157.742188 193.597656 157.21875 193.195312 156.527344 L 193.195312 128.128906 C 193.480469 127.582031 193.921875 127.15625 194.4375 126.878906 C 195.066406 126.550781 195.816406 126.429688 196.546875 126.609375 C 197.28125 126.789062 197.894531 127.222656 198.300781 127.796875 C 198.703125 128.375 198.898438 129.101562 198.816406 129.855469 C 198.675781 131.105469 199.574219 132.242188 200.832031 132.386719 C 202.089844 132.527344 203.21875 131.628906 203.363281 130.375 C 203.578125 128.480469 203.070312 126.652344 202.042969 125.1875 C 201.019531 123.71875 199.476562 122.621094 197.625 122.171875 L 197.621094 122.171875 C 196.097656 121.804688 194.570312 121.925781 193.203125 122.441406 L 193.203125 116.191406 C 193.203125 112.644531 192.863281 110.414062 194.4375 107.089844 C 195.105469 105.691406 195.972656 104.414062 197.019531 103.296875 C 199.035156 101.148438 201.675781 99.59375 204.679688 98.925781 C 207.679688 98.261719 210.742188 98.550781 213.476562 99.660156 C 216.203125 100.761719 218.605469 102.660156 220.3125 105.21875 C 222.019531 107.789062 222.847656 110.75 222.8125 113.691406 C 222.773438 116.625 221.855469 119.558594 220.078125 122.074219 C 219.351562 123.105469 219.601562 124.527344 220.632812 125.253906 C 221.667969 125.980469 223.097656 125.734375 223.816406 124.699219 C 225.875 121.789062 227.042969 118.445312 227.3125 115.023438 C 227.949219 115.339844 228.546875 115.710938 229.101562 116.140625 C 230.394531 117.140625 231.464844 118.460938 232.183594 119.992188 C 232.902344 121.527344 233.242188 123.179688 233.1875 124.828125 C 233.167969 125.570312 233.0625 126.308594 232.882812 127.035156 C 232.09375 126.550781 231.265625 126.121094 230.382812 125.761719 C 229.214844 125.285156 227.878906 125.851562 227.402344 127.019531 C 226.929688 128.1875 227.492188 129.519531 228.660156 130 C 231.121094 130.996094 233.082031 132.769531 234.339844 134.9375 C 235.597656 137.117188 236.152344 139.699219 235.792969 142.332031 C 235.433594 144.957031 234.207031 147.292969 232.410156 149.042969 C 230.613281 150.804688 228.246094 151.976562 225.613281 152.277344 C 224.363281 152.421875 223.464844 153.558594 223.605469 154.808594 C 223.746094 156.058594 224.871094 156.949219 226.113281 156.820312 C 226.9375 156.722656 227.753906 156.566406 228.53125 156.355469 C 228.644531 157 228.675781 157.660156 228.621094 158.308594 C 228.515625 159.640625 228.066406 160.9375 227.304688 162.066406 C 226.53125 163.203125 225.492188 164.085938 224.300781 164.679688 C 223.742188 164.953125 223.140625 165.164062 222.519531 165.300781 C 222.503906 165.164062 222.496094 165.03125 222.484375 164.894531 C 222.09375 161.019531 220.417969 157.277344 217.511719 154.34375 C 216.621094 153.453125 215.175781 153.445312 214.285156 154.335938 C 213.386719 155.226562 213.386719 156.664062 214.277344 157.5625 C 216.417969 159.722656 217.652344 162.484375 217.9375 165.335938 C 218.222656 168.195312 217.554688 171.152344 215.886719 173.703125 C 214.21875 176.253906 211.777344 178.042969 209.035156 178.917969 C 206.304688 179.796875 203.265625 179.765625 200.425781 178.664062 C 199.25 178.207031 197.925781 178.792969 197.476562 179.96875 C 197.019531 181.140625 197.605469 182.460938 198.78125 182.914062 C 200.875 183.722656 203.039062 184.105469 205.179688 184.097656 L 205.179688 194.648438 Z M 201.730469 168.324219 C 200.808594 167.460938 199.363281 167.515625 198.503906 168.433594 C 197.640625 169.355469 197.695312 170.808594 198.621094 171.660156 C 200.203125 173.132812 202.214844 173.914062 204.253906 173.980469 C 206.28125 174.046875 208.339844 173.402344 210.015625 172.035156 C 211.703125 170.664062 212.75 168.777344 213.09375 166.773438 C 213.4375 164.78125 213.078125 162.65625 211.957031 160.800781 C 211.304688 159.722656 209.90625 159.378906 208.828125 160.03125 C 207.75 160.683594 207.40625 162.082031 208.054688 163.160156 C 208.585938 164.035156 208.753906 165.042969 208.585938 166.003906 C 208.421875 166.953125 207.929688 167.84375 207.136719 168.488281 C 206.339844 169.136719 205.359375 169.4375 204.394531 169.40625 C 203.4375 169.378906 202.484375 169.003906 201.730469 168.308594 Z M 218.566406 140.328125 C 217.40625 139.824219 216.066406 140.347656 215.566406 141.507812 C 214.898438 143.035156 213.738281 144.21875 212.339844 144.929688 C 210.929688 145.640625 209.292969 145.871094 207.660156 145.503906 C 206.035156 145.136719 204.65625 144.21875 203.691406 142.976562 C 202.734375 141.734375 202.1875 140.160156 202.246094 138.492188 C 202.285156 137.234375 201.296875 136.179688 200.039062 136.144531 C 198.78125 136.105469 197.722656 137.09375 197.6875 138.351562 C 197.597656 141.105469 198.488281 143.710938 200.082031 145.765625 C 201.675781 147.824219 203.96875 149.351562 206.664062 149.957031 C 209.359375 150.5625 212.074219 150.183594 214.398438 149.007812 C 216.726562 147.832031 218.648438 145.871094 219.757812 143.335938 C 220.257812 142.183594 219.734375 140.835938 218.574219 140.332031 Z M 208.925781 134.429688 C 207.726562 134.824219 207.082031 136.121094 207.488281 137.316406 C 207.882812 138.515625 209.179688 139.160156 210.375 138.753906 C 212.824219 137.929688 214.765625 136.261719 215.960938 134.175781 C 217.160156 132.085938 217.617188 129.578125 217.101562 127.058594 C 216.582031 124.535156 215.167969 122.410156 213.238281 120.964844 C 211.304688 119.515625 208.871094 118.742188 206.3125 118.945312 C 205.054688 119.042969 204.109375 120.144531 204.207031 121.398438 C 204.304688 122.65625 205.40625 123.601562 206.664062 123.503906 C 208.085938 123.390625 209.433594 123.808594 210.496094 124.609375 C 211.558594 125.410156 212.339844 126.578125 212.621094 127.972656 C 212.90625 129.355469 212.652344 130.746094 211.984375 131.90625 C 211.320312 133.058594 210.257812 133.980469 208.925781 134.429688 Z M 208.925781 134.429688 " clip-rule="evenodd"/>
    </clipPath>
    <linearGradient x1="115.64367" gradientTransform="matrix(0.748673, 0, 0, 0.748364, 134.73076, 94.025088)" y1="-3.962199" x2="87.876108" gradientUnits="userSpaceOnUse" y2="179.490987" id="fa6c4b1040">
      <stop stop-opacity="1" stop-color="rgb(36.099243%, 88.198853%, 90.19928%)" offset="0"/>
      <stop stop-opacity="1" stop-color="rgb(36.019897%, 88.104248%, 90.254211%)" offset="0.0625"/>
      <stop stop-opacity="1" stop-color="rgb(35.806274%, 87.849426%, 90.402222%)" offset="0.0781"/>
      <stop stop-opacity="1" stop-color="rgb(35.534668%, 87.52594%, 90.591431%)" offset="0.0938"/>
      <stop stop-opacity="1" stop-color="rgb(35.263062%, 87.202454%, 90.78064%)" offset="0.1094"/>
      <stop stop-opacity="1" stop-color="rgb(34.991455%, 86.878967%, 90.968323%)" offset="0.1139"/>
      <stop stop-opacity="1" stop-color="rgb(34.855652%, 86.717224%, 91.062927%)" offset="0.125"/>
      <stop stop-opacity="1" stop-color="rgb(34.719849%, 86.555481%, 91.157532%)" offset="0.1406"/>
      <stop stop-opacity="1" stop-color="rgb(34.448242%, 86.231995%, 91.346741%)" offset="0.1563"/>
      <stop stop-opacity="1" stop-color="rgb(34.176636%, 85.908508%, 91.53595%)" offset="0.1719"/>
      <stop stop-opacity="1" stop-color="rgb(33.905029%, 85.585022%, 91.723633%)" offset="0.1875"/>
      <stop stop-opacity="1" stop-color="rgb(33.633423%, 85.261536%, 91.912842%)" offset="0.2031"/>
      <stop stop-opacity="1" stop-color="rgb(33.361816%, 84.938049%, 92.102051%)" offset="0.2188"/>
      <stop stop-opacity="1" stop-color="rgb(33.09021%, 84.614563%, 92.289734%)" offset="0.2344"/>
      <stop stop-opacity="1" stop-color="rgb(32.818604%, 84.291077%, 92.478943%)" offset="0.25"/>
      <stop stop-opacity="1" stop-color="rgb(32.546997%, 83.96759%, 92.668152%)" offset="0.2656"/>
      <stop stop-opacity="1" stop-color="rgb(32.275391%, 83.644104%, 92.855835%)" offset="0.2813"/>
      <stop stop-opacity="1" stop-color="rgb(32.003784%, 83.320618%, 93.045044%)" offset="0.2969"/>
      <stop stop-opacity="1" stop-color="rgb(31.732178%, 82.997131%, 93.234253%)" offset="0.3125"/>
      <stop stop-opacity="1" stop-color="rgb(31.462097%, 82.673645%, 93.421936%)" offset="0.3281"/>
      <stop stop-opacity="1" stop-color="rgb(31.190491%, 82.350159%, 93.611145%)" offset="0.3438"/>
      <stop stop-opacity="1" stop-color="rgb(30.918884%, 82.026672%, 93.800354%)" offset="0.3594"/>
      <stop stop-opacity="1" stop-color="rgb(30.647278%, 81.703186%, 93.988037%)" offset="0.375"/>
      <stop stop-opacity="1" stop-color="rgb(30.375671%, 81.3797%, 94.177246%)" offset="0.3906"/>
      <stop stop-opacity="1" stop-color="rgb(30.104065%, 81.056213%, 94.366455%)" offset="0.4063"/>
      <stop stop-opacity="1" stop-color="rgb(29.832458%, 80.732727%, 94.554138%)" offset="0.4219"/>
      <stop stop-opacity="1" stop-color="rgb(29.560852%, 80.409241%, 94.743347%)" offset="0.4375"/>
      <stop stop-opacity="1" stop-color="rgb(29.289246%, 80.085754%, 94.932556%)" offset="0.4531"/>
      <stop stop-opacity="1" stop-color="rgb(29.017639%, 79.762268%, 95.120239%)" offset="0.4688"/>
      <stop stop-opacity="1" stop-color="rgb(28.746033%, 79.438782%, 95.309448%)" offset="0.4844"/>
      <stop stop-opacity="1" stop-color="rgb(28.474426%, 79.115295%, 95.498657%)" offset="0.5"/>
      <stop stop-opacity="1" stop-color="rgb(28.20282%, 78.790283%, 95.68634%)" offset="0.5156"/>
      <stop stop-opacity="1" stop-color="rgb(27.931213%, 78.466797%, 95.875549%)" offset="0.5312"/>
      <stop stop-opacity="1" stop-color="rgb(27.659607%, 78.143311%, 96.064758%)" offset="0.5469"/>
      <stop stop-opacity="1" stop-color="rgb(27.388%, 77.819824%, 96.253967%)" offset="0.5625"/>
      <stop stop-opacity="1" stop-color="rgb(27.116394%, 77.496338%, 96.44165%)" offset="0.5781"/>
      <stop stop-opacity="1" stop-color="rgb(26.844788%, 77.172852%, 96.630859%)" offset="0.5938"/>
      <stop stop-opacity="1" stop-color="rgb(26.573181%, 76.849365%, 96.820068%)" offset="0.6094"/>
      <stop stop-opacity="1" stop-color="rgb(26.303101%, 76.525879%, 97.007751%)" offset="0.625"/>
      <stop stop-opacity="1" stop-color="rgb(26.031494%, 76.202393%, 97.19696%)" offset="0.6406"/>
      <stop stop-opacity="1" stop-color="rgb(25.759888%, 75.878906%, 97.386169%)" offset="0.6563"/>
      <stop stop-opacity="1" stop-color="rgb(25.488281%, 75.55542%, 97.573853%)" offset="0.6719"/>
      <stop stop-opacity="1" stop-color="rgb(25.216675%, 75.231934%, 97.763062%)" offset="0.6875"/>
      <stop stop-opacity="1" stop-color="rgb(24.945068%, 74.908447%, 97.952271%)" offset="0.7031"/>
      <stop stop-opacity="1" stop-color="rgb(24.673462%, 74.584961%, 98.139954%)" offset="0.7188"/>
      <stop stop-opacity="1" stop-color="rgb(24.401855%, 74.261475%, 98.329163%)" offset="0.7344"/>
      <stop stop-opacity="1" stop-color="rgb(24.130249%, 73.937988%, 98.518372%)" offset="0.75"/>
      <stop stop-opacity="1" stop-color="rgb(23.858643%, 73.614502%, 98.706055%)" offset="0.7656"/>
      <stop stop-opacity="1" stop-color="rgb(23.587036%, 73.291016%, 98.895264%)" offset="0.7812"/>
      <stop stop-opacity="1" stop-color="rgb(23.31543%, 72.967529%, 99.084473%)" offset="0.7969"/>
      <stop stop-opacity="1" stop-color="rgb(23.043823%, 72.644043%, 99.272156%)" offset="0.8125"/>
      <stop stop-opacity="1" stop-color="rgb(22.772217%, 72.320557%, 99.461365%)" offset="0.8281"/>
      <stop stop-opacity="1" stop-color="rgb(22.50061%, 71.99707%, 99.650574%)" offset="0.8438"/>
      <stop stop-opacity="1" stop-color="rgb(22.229004%, 71.673584%, 99.838257%)" offset="0.8594"/>
      <stop stop-opacity="1" stop-color="rgb(22.045898%, 71.455383%, 99.966431%)" offset="0.875"/>
      <stop stop-opacity="1" stop-color="rgb(21.998596%, 71.398926%, 100%)" offset="0.8861"/>
      <stop stop-opacity="1" stop-color="rgb(21.998596%, 71.398926%, 100%)" offset="1"/>
    </linearGradient>
  </defs>
  <g clip-path="url(#2a329caa2e)" transform="matrix(2.992027, 0, 0, 2.998524, -369.117218, -281.861267)">
    <g clip-path="url(#ffc3a33170)">
      <path d="M 134.730469 93.960938 L 134.730469 218.394531 L 240.480469 218.394531 L 240.480469 93.960938 Z M 134.730469 93.960938 " fill-rule="nonzero" style="paint-order: stroke;" fill="url(#fa6c4b1040)"/>
    </g>
  </g>
  <g fill="#010b19" fill-opacity="1">
    <g transform="translate(140.510542, 254.966174)">
      <g/>
    </g>
  </g>
</svg>